<!-- icon666.com - MILLIONS vector ICONS FREE -->
<svg id="Layer_1" enable-background="new 0 0 24 24" viewBox="0 0 24 24"
    xmlns="http://www.w3.org/2000/svg">
    <path
        d="m22 14v-4h-2.3c-.2-.7-.5-1.4-.9-2.1l1.6-1.6-2.8-2.8-1.6 1.6c-.6-.4-1.3-.7-2.1-.9v-2.2h-4v2.3c-.6.1-1.3.4-2 .8l-1.6-1.6-2.8 2.9 1.6 1.6c-.4.6-.7 1.3-.8 2h-2.3v4h2.3c.2.7.5 1.4.9 2.1l-1.6 1.6 2.8 2.8 1.6-1.6c.6.4 1.3.7 2.1.8v2.3h4v-2.3c.7-.2 1.4-.5 2.1-.8l1.6 1.6 2.8-2.8-1.6-1.6c.4-.6.7-1.3.9-2.1zm-10 2c-2.2 0-4-1.8-4-4s1.8-4 4-4 4 1.8 4 4-1.8 4-4 4z"
        fill="white"></path>
</svg>